<?xml version="1.0" encoding="UTF-8"?>
<svg width="48" height="48" viewBox="0 0 48 48" fill="none" xmlns="http://www.w3.org/2000/svg">
  <!-- Calendrier -->
  <rect x="8" y="8" width="32" height="32" rx="4" stroke="#666" stroke-width="2" fill="none"/>
  <line x1="8" y1="16" x2="40" y2="16" stroke="#666" stroke-width="2"/>
  <line x1="16" y1="8" x2="16" y2="16" stroke="#666" stroke-width="2"/>
  <line x1="32" y1="8" x2="32" y2="16" stroke="#666" stroke-width="2"/>

  <!-- Gâteau -->
  <path d="M24 20C28 20 32 24 32 28C32 32 28 36 24 36C20 36 16 32 16 28C16 24 20 20 24 20Z" fill="#FFB6C1"/>
  <path d="M24 16C26 16 28 18 28 20C28 22 26 24 24 24C22 24 20 22 20 20C20 18 22 16 24 16Z" fill="#FFB6C1"/>
  <circle cx="24" cy="28" r="2" fill="#FF69B4"/>
  <circle cx="20" cy="24" r="2" fill="#FF69B4"/>
  <circle cx="28" cy="24" r="2" fill="#FF69B4"/>
</svg>